<svg width="369" height="144" viewBox="0 0 369 144" fill="none" xmlns="http://www.w3.org/2000/svg">
<g filter="url(#filter0_d_34_2443)">
<circle cx="185" cy="64" r="40" fill="white"/>
</g>
<path d="M177 68.7999C177 69.1999 177.2 69.5999 177.6 69.7999L182.6 72.7999C183.2 73.1999 183.8 72.7999 183.8 72.1999V66.5999C183.8 66.3999 183.6 65.9999 183.4 65.9999L178.2 62.5999C177.8 62.3999 177 62.7999 177 63.3999V68.7999Z" fill="#091E42"/>
<path d="M184.6 66.3997V71.9997C184.6 72.5997 185.2 72.9997 185.8 72.5997L190.8 69.5997C191.2 69.3997 191.4 68.9997 191.4 68.5997V63.3997C191.4 62.7997 190.8 62.3997 190.2 62.7997L185 65.5997C184.8 65.7997 184.6 65.9997 184.6 66.3997Z" fill="#091E42"/>
<path d="M190.2 61.7998L184.6 64.9998C184.4 65.1998 184 65.1998 183.8 64.9998L178.2 61.7998C177.6 61.3998 177.6 60.7998 178.2 60.3998L183.8 57.1998C184 56.9998 184.4 56.9998 184.6 57.1998L190.2 60.3998C190.8 60.5998 190.8 61.3998 190.2 61.7998Z" fill="#36B37E"/>
<path d="M165 80.0001C165 80.4001 165.2 80.8001 165.6 81.0001L170.6 84.0001C171.2 84.4001 171.8 84.0001 171.8 83.4001V77.8001C171.8 77.6001 171.6 77.2001 171.4 77.2001L166.2 74.2001C165.6 73.8001 165 74.2001 165 74.8001V80.0001V80.0001Z" fill="#091E42"/>
<path d="M172.6 77.4003V83.0003C172.6 83.6003 173.2 84.0003 173.8 83.6003L178.8 80.6003C179.2 80.4003 179.4 80.0003 179.4 79.6003V74.0003C179.4 73.4003 178.8 73.0003 178.2 73.4003L173 76.8003C172.8 77.0003 172.6 77.2003 172.6 77.4003Z" fill="#091E42"/>
<path d="M178.2 72.7998L172.6 75.9998C172.4 76.1998 172 76.1998 171.8 75.9998L166.2 72.7998C165.6 72.3998 165.6 71.7998 166.2 71.3998L171.8 68.1998C172 67.9998 172.4 67.9998 172.6 68.1998L178.2 71.3998C178.6 71.7998 178.6 72.5998 178.2 72.7998Z" fill="#36B37E"/>
<path d="M189.2 80.0001C189.2 80.4001 189.4 80.8001 189.8 81.0001L194.8 84.0001C195.4 84.4001 196 84.0001 196 83.4001V77.8001C196 77.6001 195.8 77.2001 195.6 77.2001L190.4 74.2001C189.8 73.8001 189.2 74.2001 189.2 74.8001V80.0001V80.0001Z" fill="#091E42"/>
<path d="M196.6 77.4003V83.0003C196.6 83.6003 197.2 84.0003 197.8 83.6003L202.8 80.6003C203.2 80.4003 203.4 80.0003 203.4 79.6003V74.0003C203.4 73.4003 202.8 73.0003 202.2 73.4003L197 76.8003C196.8 77.0003 196.6 77.2003 196.6 77.4003Z" fill="#091E42"/>
<path d="M202.2 72.7998L196.6 75.9998C196.4 76.1998 196 76.1998 195.8 75.9998L190.2 72.7998C189.6 72.3998 189.6 71.7998 190.2 71.3998L195.8 68.1998C196 67.9998 196.4 67.9998 196.6 68.1998L202.2 71.3998C202.8 71.7998 202.8 72.5998 202.2 72.7998Z" fill="#36B37E"/>
<path d="M165 57.8005C165 58.2005 165.2 58.6005 165.6 58.8005L170.6 61.8005C171 62.0005 171.8 61.6005 171.8 61.0005V55.2005C171.8 55.0005 171.6 54.6005 171.4 54.6005L166.2 51.6005C165.6 51.4005 165 51.6005 165 52.4005V57.8005Z" fill="#091E42"/>
<path d="M172.6 55.1997V60.7997C172.6 61.3997 173.2 61.7997 173.8 61.3997L178.8 58.3997C179.2 58.1997 179.4 57.7997 179.4 57.3997V52.3997C179.4 51.7997 178.8 51.3997 178.2 51.7997L173 54.5997C172.8 54.7997 172.6 54.9997 172.6 55.1997Z" fill="#091E42"/>
<path d="M178.2 50.6L172.6 53.8C172.4 54 172 54 171.8 53.8L166.2 50.6C165.6 50.2 165.6 49.6 166.2 49.2L171.8 46C172 46 172.4 46 172.6 46.2L178.2 49.4C178.6 49.6 178.6 50.4 178.2 50.6Z" fill="#36B37E"/>
<path d="M189.2 57.8005C189.2 58.2005 189.4 58.6005 189.8 58.8005L194.8 61.8005C195.4 62.2005 196 61.8005 196 61.2005V55.2005C196 55.0005 195.8 54.6005 195.6 54.6005L190.4 51.6005C189.8 51.2005 189.2 51.6005 189.2 52.2005V57.8005V57.8005Z" fill="#091E42"/>
<path d="M196.6 55.1997V60.7997C196.6 61.3997 197.2 61.7997 197.8 61.3997L202.8 58.3997C203.2 58.1997 203.4 57.7997 203.4 57.3997V52.3997C203.4 51.7997 202.8 51.3997 202.2 51.7997L197 54.5997C196.8 54.7997 196.6 54.9997 196.6 55.1997Z" fill="#091E42"/>
<path d="M202.2 50.5998L196.6 53.9998C196.4 53.9998 196.2 53.9998 195.8 53.9998L190.2 50.7998C189.6 50.3998 189.6 49.7998 190.2 49.3998L195.8 46.1998C196 45.9998 196.4 45.9998 196.6 46.1998L202.2 49.3998C202.8 49.5998 202.8 50.3998 202.2 50.5998Z" fill="#36B37E"/>
<defs>
<filter id="filter0_d_34_2443" x="121" y="16" width="128" height="128" filterUnits="userSpaceOnUse" color-interpolation-filters="sRGB">
<feFlood flood-opacity="0" result="BackgroundImageFix"/>
<feColorMatrix in="SourceAlpha" type="matrix" values="0 0 0 0 0 0 0 0 0 0 0 0 0 0 0 0 0 0 127 0" result="hardAlpha"/>
<feOffset dy="16"/>
<feGaussianBlur stdDeviation="12"/>
<feColorMatrix type="matrix" values="0 0 0 0 0.145573 0 0 0 0 0.185183 0 0 0 0 0.5375 0 0 0 0.08 0"/>
<feBlend mode="normal" in2="BackgroundImageFix" result="effect1_dropShadow_34_2443"/>
<feBlend mode="normal" in="SourceGraphic" in2="effect1_dropShadow_34_2443" result="shape"/>
</filter>
</defs>
</svg>
